<?xml version="1.0" encoding="utf-8"?>
<!-- Generator: Adobe Illustrator 16.0.0, SVG Export Plug-In . SVG Version: 6.00 Build 0)  -->
<!DOCTYPE svg PUBLIC "-//W3C//DTD SVG 1.1//EN" "http://www.w3.org/Graphics/SVG/1.1/DTD/svg11.dtd">
<svg version="1.1" id="Layer_1" xmlns="http://www.w3.org/2000/svg" xmlns:xlink="http://www.w3.org/1999/xlink" x="0px" y="0px"
	 width="8.291px" height="14.772px" viewBox="0 0 8.291 14.772" enable-background="new 0 0 8.291 14.772" xml:space="preserve">
<g>
	<path fill="#5FBB46" d="M3.804,4.289c1.239,0,4.487,0,4.487-4.289C3.804,0,3.804,3.05,3.804,4.289z"/>
	<g>
		<path fill="#331D4D" d="M1.05,6.956c0-0.337-0.098-0.532-0.504-0.757L0.224,6.018C0.126,5.976,0.126,5.934,0.126,5.892V5.779
			c0-0.042,0.028-0.07,0.098-0.098l1.345-0.672c0.112-0.056,0.224-0.112,0.322-0.112c0.07,0,0.098,0.07,0.098,0.28L2.045,5.85h0.042
			c0.378-0.491,1.106-0.939,2.045-0.939c0.714,0,1.191,0.308,1.597,0.687c0.532,0.532,0.756,1.107,0.756,2.185
			c0,1.835-1.275,3.306-3.026,3.306c-0.378,0-0.966-0.056-1.4-0.238v2.956c0,0.392,0.098,0.462,0.308,0.462h0.616
			c0.112,0,0.126,0.057,0.126,0.141v0.237c0,0.084-0.028,0.127-0.126,0.127c-0.07,0-0.546-0.043-1.443-0.043
			c-0.813,0-1.303,0.043-1.415,0.043C0.028,14.772,0,14.729,0,14.646v-0.252c0-0.069,0.028-0.126,0.168-0.126h0.546
			c0.238,0,0.266-0.14,0.294-0.35C1.05,13.609,1.05,12.853,1.05,11.48V6.956z M2.059,9.52c0,0.308,0.028,0.56,0.294,0.742
			c0.392,0.28,0.827,0.378,1.401,0.378c0.798,0,1.625-0.603,1.625-2.339c0-1.961-0.883-2.746-1.821-2.746
			c-0.588,0-1.163,0.336-1.499,0.896V9.52z"/>
	</g>
</g>
</svg>
