<?xml version="1.0" encoding="utf-8"?>
<!-- Generator: Adobe Illustrator 16.0.0, SVG Export Plug-In . SVG Version: 6.00 Build 0)  -->
<!DOCTYPE svg PUBLIC "-//W3C//DTD SVG 1.1//EN" "http://www.w3.org/Graphics/SVG/1.1/DTD/svg11.dtd">
<svg version="1.1" id="Layer_1" xmlns="http://www.w3.org/2000/svg" xmlns:xlink="http://www.w3.org/1999/xlink" x="0px" y="0px"
	width="100%" height="100%" viewBox="0 0 32.078 14.772" enable-background="new 0 0 32.078 14.772" xml:space="preserve">
<g>
	<path fill="#48b946" d="M3.804,4.289c1.239,0,4.487,0,4.487-4.289C3.804,0,3.804,3.05,3.804,4.289z"/>
	<g>
		<path fill="#331D4D" d="M1.05,6.956c0-0.337-0.098-0.532-0.504-0.757L0.224,6.018C0.126,5.976,0.126,5.934,0.126,5.892V5.779
			c0-0.042,0.028-0.07,0.098-0.098l1.345-0.672c0.112-0.056,0.224-0.112,0.322-0.112c0.07,0,0.098,0.07,0.098,0.28L2.045,5.85h0.042
			c0.378-0.491,1.106-0.939,2.045-0.939c0.714,0,1.191,0.308,1.597,0.687c0.532,0.532,0.756,1.107,0.756,2.185
			c0,1.835-1.275,3.306-3.026,3.306c-0.378,0-0.966-0.056-1.4-0.238v2.956c0,0.392,0.098,0.462,0.308,0.462h0.616
			c0.112,0,0.126,0.057,0.126,0.141v0.237c0,0.084-0.028,0.127-0.126,0.127c-0.07,0-0.546-0.043-1.443-0.043
			c-0.813,0-1.303,0.043-1.415,0.043C0.028,14.772,0,14.729,0,14.646v-0.252c0-0.069,0.028-0.126,0.168-0.126h0.546
			c0.238,0,0.266-0.14,0.294-0.35C1.05,13.609,1.05,12.853,1.05,11.48V6.956z M2.059,9.52c0,0.308,0.028,0.56,0.294,0.742
			c0.392,0.28,0.827,0.378,1.401,0.378c0.798,0,1.625-0.603,1.625-2.339c0-1.961-0.883-2.746-1.821-2.746
			c-0.588,0-1.163,0.336-1.499,0.896V9.52z"/>
		<path fill="#331D4D" d="M8.358,7.194c0-0.715-0.112-0.854-0.504-1.065l-0.266-0.14C7.504,5.961,7.476,5.947,7.476,5.892V5.808
			c0-0.057,0.028-0.084,0.112-0.126l1.387-0.714c0.084-0.042,0.14-0.056,0.196-0.056c0.084,0,0.098,0.084,0.098,0.168l0.07,0.995
			h0.056c0.42-0.645,1.078-1.219,1.681-1.219c0.476,0,0.714,0.294,0.714,0.617c0,0.406-0.336,0.686-0.588,0.686
			c-0.154,0-0.294-0.056-0.406-0.112c-0.112-0.069-0.28-0.111-0.462-0.111c-0.224,0-0.588,0.14-0.827,0.588
			c-0.084,0.154-0.14,0.406-0.14,0.448v2.914c0,0.434,0.098,0.574,0.392,0.574h0.659c0.084,0,0.098,0.042,0.098,0.126v0.252
			c0,0.084-0.014,0.126-0.07,0.126c-0.084,0-0.729-0.042-1.485-0.042c-0.868,0-1.457,0.042-1.541,0.042
			c-0.056,0-0.084-0.028-0.084-0.14v-0.238c0-0.099,0.028-0.126,0.154-0.126h0.546c0.21,0,0.308-0.084,0.308-0.267
			c0.014-0.462,0.014-0.952,0.014-1.681V7.194z"/>
		<path fill="#331D4D" d="M17.796,8.076c0,0.673,0,1.359,0.028,1.653c0.042,0.434,0.196,0.49,0.364,0.49
			c0.084,0,0.294,0,0.462-0.042c0.112-0.028,0.154,0,0.168,0.056l0.042,0.183c0.014,0.084-0.014,0.111-0.07,0.126l-1.471,0.49
			c-0.084,0.027-0.168,0.056-0.28,0.056c-0.056,0-0.112-0.028-0.126-0.168l-0.112-0.813h-0.028c-0.393,0.546-1.205,0.98-1.905,0.98
			c-0.392,0-0.854-0.042-1.317-0.645c-0.574-0.742-0.546-1.204-0.546-2.745V6.06c-0.014-0.393-0.21-0.491-0.533-0.533
			c-0.238-0.014-0.308-0.028-0.308-0.098V5.177c0-0.084,0.028-0.112,0.154-0.112h1.247c0.084,0,0.14-0.014,0.196-0.028
			c0.056,0,0.112-0.014,0.154-0.014c0.098,0,0.168,0.07,0.154,0.168c-0.014,0.126-0.056,0.785-0.056,1.611v1.009
			c0,0.56-0.14,1.456,0.308,2.101c0.35,0.505,0.743,0.532,1.121,0.532c0.378,0,0.938-0.364,1.205-0.7
			c0.056-0.07,0.14-0.252,0.14-0.378V6.018c-0.028-0.393-0.252-0.462-0.602-0.491c-0.238,0-0.308-0.028-0.308-0.098V5.191
			c0-0.112,0.028-0.126,0.168-0.126h1.303c0.098,0,0.168-0.014,0.238-0.028c0.07,0,0.126-0.014,0.168-0.014
			c0.084,0,0.14,0.07,0.126,0.14c-0.014,0.126-0.084,0.491-0.084,1.863V8.076z"/>
		<path fill="#331D4D" d="M25.313,10.163c0,0.225,0.127,0.295,0.309,0.295h0.449c0.125,0,0.154,0.042,0.154,0.126v0.224
			c0,0.099-0.029,0.154-0.113,0.154c-0.098,0-0.531-0.042-1.33-0.042c-0.715,0-1.162,0.042-1.261,0.042
			c-0.084,0-0.112-0.042-0.112-0.154v-0.224c0-0.099,0.043-0.126,0.182-0.126h0.406c0.154,0,0.267-0.07,0.281-0.322
			c0.014-0.364,0.027-0.813,0.027-1.177V7.11c0-0.561,0-0.967-0.406-1.261c-0.336-0.252-0.672-0.252-1.022-0.252
			c-0.224,0-0.714,0.098-1.134,0.546c-0.281,0.308-0.322,0.687-0.322,0.952v2.899c0,0.379,0.041,0.463,0.336,0.463h0.35
			c0.112,0,0.141,0.042,0.141,0.14v0.238c0,0.084-0.028,0.126-0.098,0.126c-0.099,0-0.477-0.042-1.219-0.042
			c-0.715,0-1.163,0.042-1.247,0.042c-0.07,0-0.099-0.042-0.099-0.126v-0.252c0-0.084,0.028-0.126,0.141-0.126h0.406
			c0.182,0,0.279-0.042,0.279-0.28V6.899c0-0.42-0.224-0.658-0.574-0.826l-0.111-0.056c-0.098-0.042-0.112-0.084-0.112-0.126v-0.07
			c0-0.07,0.056-0.112,0.126-0.14l1.205-0.672c0.111-0.056,0.195-0.098,0.252-0.098c0.07,0,0.098,0.056,0.111,0.168l0.099,0.855
			h0.028c0.406-0.505,1.219-1.023,1.919-1.023c0.42,0,0.854,0.084,1.19,0.308c0.42,0.28,0.77,0.98,0.77,1.331V10.163z"/>
		<path fill="#331D4D" d="M28.099,7.194c-0.029,0.126-0.043,0.35-0.043,0.672c0,1.373,0.869,2.409,1.988,2.409
			c0.855,0,1.457-0.49,1.695-0.952c0.029-0.057,0.084-0.084,0.127-0.07l0.182,0.098c0.041,0.015,0.07,0.057,0,0.211
			c-0.252,0.56-0.98,1.526-2.227,1.526c-0.799,0-1.682-0.238-2.199-0.994c-0.49-0.715-0.617-1.233-0.617-2.214
			c0-0.546,0.141-1.484,0.883-2.227c0.602-0.617,1.303-0.743,2.004-0.743c1.609,0,2.059,1.513,2.059,2.059
			c0,0.196-0.168,0.225-0.393,0.225H28.099z M30.325,6.773c0.266,0,0.377-0.069,0.377-0.196c0-0.321-0.168-1.246-1.078-1.246
			c-0.615,0-1.205,0.406-1.471,1.442H30.325z"/>
	</g>
</g>
</svg>
