<svg viewBox="0 0 34 18" xmlns="http://www.w3.org/2000/svg" xml:space="preserve" style="fill-rule: evenodd; clip-rule: evenodd; stroke-linejoin: round; stroke-miterlimit: 2;"><path d="M-4-3h39v20H-4z" transform="matrix(.8718 0 0 .9 3.487 2.7)" style="fill: none;"></path><path d="M3.804 4.289c1.239 0 4.487 0 4.487-4.289-4.487 0-4.487 3.05-4.487 4.289Z" transform="translate(1 1)" style="fill: rgb(81, 188, 78); fill-rule: nonzero;"></path><path d="M1.05 6.956c0-.337-.098-.532-.504-.757l-.322-.181c-.098-.042-.098-.084-.098-.126v-.113c0-.042.028-.07.098-.098l1.345-.672c.112-.056.224-.112.322-.112.07 0 .098.07.098.28l.056.673h.042c.378-.491 1.106-.939 2.045-.939.714 0 1.191.308 1.597.687.532.532.756 1.107.756 2.185 0 1.835-1.275 3.306-3.026 3.306-.378 0-.966-.056-1.4-.238v2.956c0 .392.098.462.308.462h.616c.112 0 .126.057.126.141v.237c0 .084-.028.127-.126.127-.07 0-.546-.043-1.443-.043-.813 0-1.303.043-1.415.043-.097-.002-.125-.045-.125-.128v-.252c0-.069.028-.126.168-.126h.546c.238 0 .266-.14.294-.35.042-.309.042-1.065.042-2.438V6.956ZM2.059 9.52c0 .308.028.56.294.742.392.28.827.378 1.401.378.798 0 1.625-.603 1.625-2.339 0-1.961-.883-2.746-1.821-2.746-.588 0-1.163.336-1.499.896V9.52ZM8.358 7.194c0-.715-.112-.854-.504-1.065l-.266-.14c-.084-.028-.112-.042-.112-.097v-.084c0-.057.028-.084.112-.126l1.387-.714a.422.422 0 0 1 .196-.056c.084 0 .098.084.098.168l.07.995h.056c.42-.645 1.078-1.219 1.681-1.219.476 0 .714.294.714.617 0 .406-.336.686-.588.686a.918.918 0 0 1-.406-.112.912.912 0 0 0-.462-.111c-.224 0-.588.14-.827.588a1.51 1.51 0 0 0-.14.448v2.914c0 .434.098.574.392.574h.659c.084 0 .098.042.098.126v.252c0 .084-.014.126-.07.126-.084 0-.729-.042-1.485-.042-.868 0-1.457.042-1.541.042-.056 0-.084-.028-.084-.14v-.238c0-.099.028-.126.154-.126h.546c.21 0 .308-.084.308-.267.014-.462.014-.952.014-1.681V7.194ZM17.796 8.076c0 .673 0 1.359.028 1.653.042.434.196.49.364.49.084 0 .294 0 .462-.042.112-.028.154 0 .168.056l.042.183c.014.084-.014.111-.07.126l-1.471.49c-.084.027-.168.056-.28.056-.056 0-.112-.028-.126-.168l-.112-.813h-.028c-.393.546-1.205.98-1.905.98-.392 0-.854-.042-1.317-.645-.574-.742-.546-1.204-.546-2.745V6.06c-.014-.393-.21-.491-.533-.533-.238-.014-.308-.028-.308-.098v-.252c0-.084.028-.112.154-.112h1.247a.73.73 0 0 0 .196-.028c.056 0 .112-.014.154-.014.098 0 .168.07.154.168-.014.126-.056.785-.056 1.611v1.009c0 .56-.14 1.456.308 2.101.35.505.743.532 1.121.532s.938-.364 1.205-.7a.763.763 0 0 0 .14-.378V6.018c-.028-.393-.252-.462-.602-.491-.238 0-.308-.028-.308-.098v-.238c0-.112.028-.126.168-.126h1.303c.098 0 .168-.014.238-.028.07 0 .126-.014.168-.014.084 0 .14.07.126.14-.014.126-.084.491-.084 1.863v1.05ZM25.313 10.163c0 .225.127.295.309.295h.449c.125 0 .154.042.154.126v.224c0 .099-.029.154-.113.154-.098 0-.531-.042-1.33-.042-.715 0-1.162.042-1.261.042-.084 0-.112-.042-.112-.154v-.224c0-.099.043-.126.182-.126h.406c.154 0 .267-.07.281-.322.014-.364.027-.813.027-1.177V7.11c0-.561 0-.967-.406-1.261-.336-.252-.672-.252-1.022-.252-.224 0-.714.098-1.134.546-.281.308-.322.687-.322.952v2.899c0 .379.041.463.336.463h.35c.112 0 .141.042.141.14v.238c0 .084-.028.126-.098.126-.099 0-.477-.042-1.219-.042-.715 0-1.163.042-1.247.042-.07 0-.099-.042-.099-.126v-.252c0-.084.028-.126.141-.126h.406c.182 0 .279-.042.279-.28V6.899c0-.42-.224-.658-.574-.826l-.111-.056c-.098-.042-.112-.084-.112-.126v-.07c0-.07.056-.112.126-.14l1.205-.672c.111-.056.195-.098.252-.098.07 0 .098.056.111.168l.099.855h.028c.406-.505 1.219-1.023 1.919-1.023.42 0 .854.084 1.19.308.42.28.77.98.77 1.331v3.613h-.001ZM28.099 7.194c-.029.126-.043.35-.043.672 0 1.373.869 2.409 1.988 2.409.855 0 1.457-.49 1.695-.952.029-.057.084-.084.127-.07l.182.098c.041.015.07.057 0 .211-.252.56-.98 1.526-2.227 1.526-.799 0-1.682-.238-2.199-.994-.49-.715-.617-1.233-.617-2.214 0-.546.141-1.484.883-2.227.602-.617 1.303-.743 2.004-.743 1.609 0 2.059 1.513 2.059 2.059 0 .196-.168.225-.393.225h-3.459Zm2.226-.421c.266 0 .377-.069.377-.196 0-.321-.168-1.246-1.078-1.246-.615 0-1.205.406-1.471 1.442h2.172Z" transform="translate(1 1)" style="fill: rgb(50, 12, 88); fill-rule: nonzero;"></path><text x="6.505" y="14.806" transform="translate(12 .32)" style="font-family: Times New Roman; font-size: 3px;">your tabs✂️</text></svg>